M48
; DRILL file {KiCad (5.1.4)-1} date 10/18/2019 12:08:52 AM
; FORMAT={-:-/ absolute / inch / decimal}
; #@! TF.CreationDate,2019-10-18T00:08:52-04:00
; #@! TF.GenerationSoftware,Kicad,Pcbnew,(5.1.4)-1
; #@! TF.FileFunction,Plated,1,2,PTH
FMAT,2
INCH
T1C0.0300
T2C0.0394
T3C0.0700
%
G90
G05
T1
X5.74Y-2.88
X5.74Y-2.98
X5.74Y-3.08
X5.74Y-3.18
X5.74Y-3.28
X5.84Y-2.88
X5.84Y-2.98
X5.84Y-3.08
X5.84Y-3.18
X5.84Y-3.28
X5.74Y-3.73
X5.74Y-3.83
X5.74Y-3.93
X5.74Y-4.03
X5.74Y-4.13
X5.84Y-3.73
X5.84Y-3.83
X5.84Y-3.93
X5.84Y-4.03
X5.84Y-4.13
T2
X5.49Y-2.805
X5.49Y-2.905
X5.49Y-3.005
X5.49Y-3.105
X5.49Y-3.205
X5.49Y-3.305
X5.49Y-3.405
X5.49Y-3.505
X5.49Y-3.605
X5.49Y-3.705
X5.49Y-3.805
X5.49Y-3.905
X5.49Y-4.005
X5.49Y-4.105
X5.49Y-4.205
X6.09Y-2.805
X6.09Y-2.905
X6.09Y-3.005
X6.09Y-3.105
X6.09Y-3.205
X6.09Y-3.305
X6.09Y-3.405
X6.09Y-3.505
X6.09Y-3.605
X6.09Y-3.705
X6.09Y-3.805
X6.09Y-3.905
X6.09Y-4.005
X6.09Y-4.105
X6.09Y-4.205
T3
X5.49Y-4.305
X5.49Y-2.705
X6.09Y-4.305
X6.09Y-2.705
T0
M30
